<?xml version="1.0" standalone="no"?>
<!DOCTYPE svg PUBLIC "-//W3C//DTD SVG 20010904//EN"
 "http://www.w3.org/TR/2001/REC-SVG-20010904/DTD/svg10.dtd">
<svg version="1.0" xmlns="http://www.w3.org/2000/svg"
 width="700.000000pt" height="700.000000pt" viewBox="0 0 700.000000 700.000000"
 preserveAspectRatio="xMidYMid meet">
<metadata>
Created by potrace 1.14, written by Peter Selinger 2001-2017
</metadata>
<g transform="translate(0.000000,700.000000) scale(0.100000,-0.100000)"
fill="#000000" stroke="none">
<path d="M3168 5955 c-2 -1 -39 -5 -83 -9 -331 -24 -723 -175 -1030 -398 -98
-71 -260 -225 -357 -338 -220 -258 -396 -628 -452 -950 -3 -19 -8 -46 -11 -59
-20 -106 -28 -443 -13 -581 31 -278 139 -591 289 -836 66 -109 129 -153 227
-159 219 -12 350 231 222 415 -92 134 -193 408 -215 586 -4 27 -9 57 -11 67
-8 25 -7 291 1 352 77 633 523 1159 1130 1333 155 45 227 55 410 58 196 3 312
-12 470 -60 611 -183 1040 -696 1121 -1341 24 -188 -7 -470 -72 -664 -57 -171
-177 -388 -279 -506 -89 -101 -187 -196 -249 -240 -16 -11 -33 -25 -40 -30
-30 -28 -151 -100 -234 -141 -163 -80 -340 -131 -522 -153 -41 -5 -790 -9
-1663 -9 -1206 -1 -1597 -4 -1625 -13 -114 -37 -184 -138 -178 -259 2 -38 11
-81 21 -100 26 -50 89 -106 143 -127 45 -17 127 -18 1637 -17 875 0 1626 3
1670 6 654 51 1271 434 1614 1001 145 241 261 568 286 812 3 33 8 74 10 90 5
39 6 299 1 347 -14 130 -20 173 -38 258 -114 548 -436 1019 -909 1330 -216
143 -527 267 -759 304 -19 3 -46 8 -60 10 -81 14 -132 18 -282 21 -91 2 -168
2 -170 0z"/>
<path d="M5932 3011 c-64 -22 -94 -42 -128 -86 -54 -71 -68 -161 -38 -250 14
-39 43 -75 158 -190 78 -79 152 -155 165 -168 l23 -26 -525 0 c-520 1 -525 0
-576 -22 -31 -13 -68 -40 -92 -67 -115 -131 -70 -331 91 -405 44 -20 61 -21
567 -22 287 0 524 -3 527 -6 3 -2 -65 -74 -151 -159 -184 -183 -209 -223 -201
-324 8 -99 57 -174 143 -219 59 -31 165 -30 227 2 33 17 164 142 445 425 364
366 400 406 417 454 24 69 16 157 -20 214 -14 22 -201 215 -416 430 -277 277
-403 396 -432 409 -60 26 -125 30 -184 10z"/>
</g>
</svg>
